<svg aria-hidden="true" style="position:absolute;width:0;height:0;overflow:hidden" xmlns="http://www.w3.org/2000/svg">
  <defs>
    <symbol id="icon-Vector" viewBox="0 0 32 32">
      <path stroke-linejoin="round" stroke-linecap="round" stroke-width="2.909" d="M30.546 23.157v4.364a2.915 2.915 0 0 1-3.172 2.909 28.792 28.792 0 0 1-12.553-4.465 28.367 28.367 0 0 1-8.727-8.727A28.784 28.784 0 0 1 1.629 4.627a2.91 2.91 0 0 1 2.894-3.171h4.364a2.908 2.908 0 0 1 2.909 2.501 18.685 18.685 0 0 0 1.018 4.087 2.905 2.905 0 0 1-.655 3.069l-1.847 1.847a23.277 23.277 0 0 0 8.727 8.727l1.847-1.847a2.909 2.909 0 0 1 3.069-.655 18.7 18.7 0 0 0 4.087 1.018 2.913 2.913 0 0 1 2.502 2.953z"/>
    </symbol>
    <symbol id="icon-mail" viewBox="0 0 32 32">
      <path stroke-linejoin="round" stroke-linecap="round" stroke-width="2.667" d="M5.333 5.333h21.333c1.467 0 2.667 1.2 2.667 2.667v16c0 1.467-1.2 2.667-2.667 2.667H5.333A2.675 2.675 0 0 1 2.666 24V8c0-1.467 1.2-2.667 2.667-2.667z"/>
      <path stroke-linejoin="round" stroke-linecap="round" stroke-width="2.667" d="M29.333 8 16 17.333 2.667 8"/>
    </symbol>
    <symbol id="icon-user" viewBox="0 0 32 32">
      <path stroke-linejoin="round" stroke-linecap="round" stroke-width="2.667" d="M26.667 28v-2.667A5.332 5.332 0 0 0 21.334 20H10.667a5.332 5.332 0 0 0-5.333 5.333V28M16 14.667A5.333 5.333 0 1 0 16 4a5.333 5.333 0 0 0 0 10.667z"/>
    </symbol>
  </defs>
</svg>
