<svg aria-hidden="true" style="position:absolute;width:0;height:0;overflow:hidden" xmlns="http://www.w3.org/2000/svg">
  <defs>
    <symbol id="icon-icon" viewBox="0 0 32 32">
      <path fill="#e9e9e9" style="fill:var(--color1, #e9e9e9)" d="M0 0h32v32H0V0z"/>
      <path fill="#fff" style="fill:var(--color2, #fff)" d="M-2243.2-5132.8H2064v18169.6h-4307.2V-5132.8z"/>
      <path fill="none" stroke="#9747ff" style="stroke:var(--color3, #9747ff)" stroke-width="3.2" d="M-64-177.6H96c7.953 0 14.4 6.447 14.4 14.4V96c0 7.953-6.447 14.4-14.4 14.4H-64c-7.953 0-14.4-6.447-14.4-14.4v-259.2c0-7.953 6.447-14.4 14.4-14.4z"/>
      <path fill="#fd9222" style="fill:var(--color4, #fd9222)" d="M3.2-16h25.6C39.404-16 48-7.404 48 3.2v25.6C48 39.404 39.404 48 28.8 48H3.2C-7.404 48-16 39.404-16 28.8V3.2C-16-7.404-7.404-16 3.2-16z"/>
      <path fill="#fff" style="fill:var(--color2, #fff)" d="M12.636 31.213c1.395 0 2.449-.536 3.163-1.607l15.448-23.28c.257-.379.446-.753.569-1.121.123-.379.184-.742.184-1.088 0-.96-.335-1.752-1.004-2.377-.658-.636-1.473-.954-2.444-.954-.669 0-1.238.134-1.707.402-.457.257-.893.703-1.305 1.339L12.569 22.895l-6.494-7.782c-.703-.815-1.584-1.222-2.644-1.222-.993 0-1.813.318-2.46.954S0 16.279 0 17.238c0 .435.067.848.201 1.238.145.379.407.775.787 1.188l8.619 10.159c.792.926 1.802 1.389 3.029 1.389z"/>
    </symbol>
  </defs>
</svg>
